<svg width="182" height="26" viewBox="0 0 182 26" fill="none" xmlns="http://www.w3.org/2000/svg">
<path d="M1.32813 25.5V9H4.60938V11.0156H4.75781C4.90365 10.6927 5.11458 10.3646 5.39063 10.0312C5.67188 9.69271 6.03646 9.41146 6.48437 9.1875C6.9375 8.95833 7.5 8.84375 8.17188 8.84375C9.04688 8.84375 9.85417 9.07292 10.5938 9.53125C11.3333 9.98437 11.9245 10.6693 12.3672 11.5859C12.8099 12.4974 13.0313 13.6406 13.0313 15.0156C13.0313 16.3542 12.8151 17.4844 12.3828 18.4062C11.9557 19.3229 11.3724 20.0182 10.6328 20.4922C9.89844 20.9609 9.07552 21.1953 8.16406 21.1953C7.51823 21.1953 6.96875 21.0885 6.51563 20.875C6.06771 20.6615 5.70052 20.3932 5.41406 20.0703C5.1276 19.7422 4.90885 19.4115 4.75781 19.0781H4.65625V25.5H1.32813ZM4.58594 15C4.58594 15.7135 4.6849 16.3359 4.88281 16.8672C5.08073 17.3984 5.36719 17.8125 5.74219 18.1094C6.11719 18.401 6.57292 18.5469 7.10937 18.5469C7.65104 18.5469 8.10938 18.3984 8.48437 18.1016C8.85938 17.7995 9.14323 17.3828 9.33594 16.8516C9.53385 16.3151 9.63281 15.6979 9.63281 15C9.63281 14.3073 9.53646 13.6979 9.34375 13.1719C9.15104 12.6458 8.86719 12.2344 8.49219 11.9375C8.11719 11.6406 7.65625 11.4922 7.10937 11.4922C6.56771 11.4922 6.10938 11.6354 5.73437 11.9219C5.36458 12.2083 5.08073 12.6146 4.88281 13.1406C4.6849 13.6667 4.58594 14.2865 4.58594 15ZM20.6719 21.2344C19.4583 21.2344 18.4089 20.9766 17.5234 20.4609C16.6432 19.9401 15.9635 19.2161 15.4844 18.2891C15.0052 17.3568 14.7656 16.276 14.7656 15.0469C14.7656 13.8073 15.0052 12.724 15.4844 11.7969C15.9635 10.8646 16.6432 10.1406 17.5234 9.625C18.4089 9.10417 19.4583 8.84375 20.6719 8.84375C21.8854 8.84375 22.9323 9.10417 23.8125 9.625C24.6979 10.1406 25.3802 10.8646 25.8594 11.7969C26.3385 12.724 26.5781 13.8073 26.5781 15.0469C26.5781 16.276 26.3385 17.3568 25.8594 18.2891C25.3802 19.2161 24.6979 19.9401 23.8125 20.4609C22.9323 20.9766 21.8854 21.2344 20.6719 21.2344ZM20.6875 18.6562C21.2396 18.6562 21.7005 18.5 22.0703 18.1875C22.4401 17.8698 22.7188 17.4375 22.9063 16.8906C23.099 16.3437 23.1953 15.7214 23.1953 15.0234C23.1953 14.3255 23.099 13.7031 22.9063 13.1562C22.7188 12.6094 22.4401 12.1771 22.0703 11.8594C21.7005 11.5417 21.2396 11.3828 20.6875 11.3828C20.1302 11.3828 19.6615 11.5417 19.2813 11.8594C18.9063 12.1771 18.6224 12.6094 18.4297 13.1562C18.2422 13.7031 18.1484 14.3255 18.1484 15.0234C18.1484 15.7214 18.2422 16.3437 18.4297 16.8906C18.6224 17.4375 18.9063 17.8698 19.2813 18.1875C19.6615 18.5 20.1302 18.6562 20.6875 18.6562ZM28.7422 21V9H31.9688V11.0937H32.0938C32.3125 10.349 32.6797 9.78646 33.1953 9.40625C33.7109 9.02083 34.3047 8.82812 34.9766 8.82812C35.1432 8.82812 35.3229 8.83854 35.5156 8.85937C35.7083 8.88021 35.8776 8.90885 36.0234 8.94531V11.8984C35.8672 11.8516 35.651 11.8099 35.375 11.7734C35.099 11.737 34.8464 11.7188 34.6172 11.7188C34.1276 11.7188 33.6901 11.8255 33.3047 12.0391C32.9245 12.2474 32.6224 12.5391 32.3984 12.9141C32.1797 13.2891 32.0703 13.7214 32.0703 14.2109V21H28.7422ZM44.7285 9V11.5H37.502V9H44.7285ZM39.1426 6.125H42.4707V17.3125C42.4707 17.6198 42.5176 17.8594 42.6113 18.0312C42.7051 18.1979 42.8353 18.3151 43.002 18.3828C43.1738 18.4505 43.3717 18.4844 43.5957 18.4844C43.752 18.4844 43.9082 18.4714 44.0645 18.4453C44.2207 18.4141 44.3405 18.3906 44.4238 18.375L44.9473 20.8516C44.7806 20.9036 44.5462 20.9635 44.2441 21.0313C43.9421 21.1042 43.5749 21.1484 43.1426 21.1641C42.3405 21.1953 41.6374 21.0885 41.0332 20.8437C40.4342 20.599 39.9681 20.2187 39.6348 19.7031C39.3014 19.1875 39.1374 18.5365 39.1426 17.75V6.125ZM50.3184 21.2266C49.5527 21.2266 48.8704 21.0938 48.2715 20.8281C47.6725 20.5573 47.1986 20.1589 46.8496 19.6328C46.5059 19.1016 46.334 18.4401 46.334 17.6484C46.334 16.9818 46.4564 16.4219 46.7012 15.9687C46.946 15.5156 47.2793 15.151 47.7012 14.875C48.123 14.599 48.6022 14.3906 49.1387 14.25C49.6803 14.1094 50.248 14.0104 50.8418 13.9531C51.5397 13.8802 52.1022 13.8125 52.5293 13.75C52.9564 13.6823 53.2663 13.5833 53.459 13.4531C53.6517 13.3229 53.748 13.1302 53.748 12.875V12.8281C53.748 12.3333 53.5918 11.9505 53.2793 11.6797C52.972 11.4089 52.5345 11.2734 51.9668 11.2734C51.3678 11.2734 50.8913 11.4062 50.5371 11.6719C50.1829 11.9323 49.9486 12.2604 49.834 12.6562L46.7559 12.4062C46.9121 11.6771 47.2194 11.0469 47.6777 10.5156C48.1361 9.97917 48.7272 9.56771 49.4512 9.28125C50.1803 8.98958 51.0241 8.84375 51.9824 8.84375C52.6491 8.84375 53.2871 8.92187 53.8965 9.07812C54.5111 9.23437 55.0553 9.47656 55.5293 9.80469C56.0085 10.1328 56.3861 10.5547 56.6621 11.0703C56.9382 11.5807 57.0762 12.1927 57.0762 12.9062V21H53.9199V19.3359H53.8262C53.6335 19.7109 53.3757 20.0417 53.0527 20.3281C52.7298 20.6094 52.3418 20.8307 51.8887 20.9922C51.4355 21.1484 50.9121 21.2266 50.3184 21.2266ZM51.2715 18.9297C51.7611 18.9297 52.1934 18.8333 52.5684 18.6406C52.9434 18.4427 53.2376 18.1771 53.4512 17.8438C53.6647 17.5104 53.7715 17.1328 53.7715 16.7109V15.4375C53.6673 15.5052 53.5241 15.5677 53.3418 15.625C53.1647 15.6771 52.9642 15.7266 52.7402 15.7734C52.5163 15.8151 52.2923 15.8542 52.0684 15.8906C51.8444 15.9219 51.6413 15.9505 51.459 15.9766C51.0684 16.0339 50.7272 16.125 50.4355 16.25C50.1439 16.375 49.9173 16.5443 49.7559 16.7578C49.5944 16.9661 49.5137 17.2266 49.5137 17.5391C49.5137 17.9922 49.6777 18.3385 50.0059 18.5781C50.3392 18.8125 50.7611 18.9297 51.2715 18.9297ZM62.9863 5V21H59.6582V5H62.9863ZM75.166 21.1953C74.2546 21.1953 73.429 20.9609 72.6895 20.4922C71.9551 20.0182 71.3717 19.3229 70.9395 18.4062C70.5124 17.4844 70.2988 16.3542 70.2988 15.0156C70.2988 13.6406 70.5202 12.4974 70.9629 11.5859C71.4056 10.6693 71.9941 9.98437 72.7285 9.53125C73.4681 9.07292 74.278 8.84375 75.1582 8.84375C75.8301 8.84375 76.39 8.95833 76.8379 9.1875C77.291 9.41146 77.6556 9.69271 77.9316 10.0312C78.2129 10.3646 78.4264 10.6927 78.5723 11.0156H78.6738V5H81.9941V21H78.7129V19.0781H78.5723C78.416 19.4115 78.1947 19.7422 77.9082 20.0703C77.627 20.3932 77.2598 20.6615 76.8066 20.875C76.3587 21.0885 75.8118 21.1953 75.166 21.1953ZM76.2207 18.5469C76.7572 18.5469 77.2103 18.401 77.5801 18.1094C77.9551 17.8125 78.2415 17.3984 78.4395 16.8672C78.6426 16.3359 78.7441 15.7135 78.7441 15C78.7441 14.2865 78.6452 13.6667 78.4473 13.1406C78.2493 12.6146 77.9629 12.2083 77.5879 11.9219C77.2129 11.6354 76.7572 11.4922 76.2207 11.4922C75.6738 11.4922 75.2129 11.6406 74.8379 11.9375C74.4629 12.2344 74.179 12.6458 73.9863 13.1719C73.7936 13.6979 73.6973 14.3073 73.6973 15C73.6973 15.6979 73.7936 16.3151 73.9863 16.8516C74.1842 17.3828 74.4681 17.7995 74.8379 18.1016C75.2129 18.3984 75.6738 18.5469 76.2207 18.5469ZM90.1523 21.2344C88.9388 21.2344 87.8893 20.9766 87.0039 20.4609C86.1237 19.9401 85.444 19.2161 84.9648 18.2891C84.4857 17.3568 84.2461 16.276 84.2461 15.0469C84.2461 13.8073 84.4857 12.724 84.9648 11.7969C85.444 10.8646 86.1237 10.1406 87.0039 9.625C87.8893 9.10417 88.9388 8.84375 90.1523 8.84375C91.3659 8.84375 92.4128 9.10417 93.293 9.625C94.1784 10.1406 94.8607 10.8646 95.3398 11.7969C95.819 12.724 96.0586 13.8073 96.0586 15.0469C96.0586 16.276 95.819 17.3568 95.3398 18.2891C94.8607 19.2161 94.1784 19.9401 93.293 20.4609C92.4128 20.9766 91.3659 21.2344 90.1523 21.2344ZM90.168 18.6562C90.7201 18.6562 91.181 18.5 91.5508 18.1875C91.9206 17.8698 92.1992 17.4375 92.3867 16.8906C92.5794 16.3437 92.6758 15.7214 92.6758 15.0234C92.6758 14.3255 92.5794 13.7031 92.3867 13.1562C92.1992 12.6094 91.9206 12.1771 91.5508 11.8594C91.181 11.5417 90.7201 11.3828 90.168 11.3828C89.6107 11.3828 89.1419 11.5417 88.7617 11.8594C88.3867 12.1771 88.1029 12.6094 87.9102 13.1562C87.7227 13.7031 87.6289 14.3255 87.6289 15.0234C87.6289 15.7214 87.7227 16.3437 87.9102 16.8906C88.1029 17.4375 88.3867 17.8698 88.7617 18.1875C89.1419 18.5 89.6107 18.6562 90.168 18.6562ZM103.314 21V9H106.486V11.1172H106.627C106.877 10.4141 107.294 9.85937 107.877 9.45312C108.46 9.04687 109.158 8.84375 109.971 8.84375C110.794 8.84375 111.494 9.04948 112.072 9.46094C112.65 9.86719 113.036 10.4193 113.229 11.1172H113.354C113.598 10.4297 114.041 9.88021 114.682 9.46875C115.327 9.05208 116.09 8.84375 116.971 8.84375C118.09 8.84375 118.999 9.20052 119.697 9.91406C120.4 10.6224 120.752 11.6276 120.752 12.9297V21H117.432V13.5859C117.432 12.9193 117.255 12.4193 116.9 12.0859C116.546 11.7526 116.104 11.5859 115.572 11.5859C114.968 11.5859 114.497 11.7786 114.158 12.1641C113.82 12.5443 113.65 13.0469 113.65 13.6719V21H110.424V13.5156C110.424 12.9271 110.255 12.4583 109.916 12.1094C109.583 11.7604 109.143 11.5859 108.596 11.5859C108.226 11.5859 107.893 11.6797 107.596 11.8672C107.304 12.0495 107.072 12.3073 106.9 12.6406C106.729 12.9687 106.643 13.3542 106.643 13.7969V21H103.314ZM131.076 15.8906V9H134.404V21H131.209V18.8203H131.084C130.813 19.5234 130.363 20.0885 129.732 20.5156C129.107 20.9427 128.344 21.1563 127.443 21.1563C126.641 21.1563 125.936 20.974 125.326 20.6094C124.717 20.2448 124.24 19.7266 123.896 19.0547C123.558 18.3828 123.386 17.5781 123.381 16.6406V9H126.709V16.0469C126.714 16.7552 126.904 17.3151 127.279 17.7266C127.654 18.138 128.157 18.3437 128.787 18.3437C129.188 18.3437 129.563 18.2526 129.912 18.0703C130.261 17.8828 130.542 17.6068 130.756 17.2422C130.975 16.8776 131.081 16.4271 131.076 15.8906ZM140.395 14.0625V21H137.066V9H140.238V11.1172H140.379C140.645 10.4193 141.09 9.86719 141.715 9.46094C142.34 9.04948 143.098 8.84375 143.988 8.84375C144.822 8.84375 145.548 9.02604 146.168 9.39062C146.788 9.75521 147.27 10.276 147.613 10.9531C147.957 11.625 148.129 12.4271 148.129 13.3594V21H144.801V13.9531C144.806 13.2187 144.618 12.6458 144.238 12.2344C143.858 11.8177 143.335 11.6094 142.668 11.6094C142.22 11.6094 141.824 11.7057 141.48 11.8984C141.142 12.0911 140.876 12.3724 140.684 12.7422C140.496 13.1068 140.4 13.5469 140.395 14.0625ZM155.174 21.1953C154.262 21.1953 153.437 20.9609 152.697 20.4922C151.963 20.0182 151.38 19.3229 150.947 18.4062C150.52 17.4844 150.307 16.3542 150.307 15.0156C150.307 13.6406 150.528 12.4974 150.971 11.5859C151.413 10.6693 152.002 9.98437 152.736 9.53125C153.476 9.07292 154.286 8.84375 155.166 8.84375C155.838 8.84375 156.398 8.95833 156.846 9.1875C157.299 9.41146 157.663 9.69271 157.939 10.0312C158.221 10.3646 158.434 10.6927 158.58 11.0156H158.682V5H162.002V21H158.721V19.0781H158.58C158.424 19.4115 158.202 19.7422 157.916 20.0703C157.635 20.3932 157.268 20.6615 156.814 20.875C156.367 21.0885 155.82 21.1953 155.174 21.1953ZM156.229 18.5469C156.765 18.5469 157.218 18.401 157.588 18.1094C157.963 17.8125 158.249 17.3984 158.447 16.8672C158.65 16.3359 158.752 15.7135 158.752 15C158.752 14.2865 158.653 13.6667 158.455 13.1406C158.257 12.6146 157.971 12.2083 157.596 11.9219C157.221 11.6354 156.765 11.4922 156.229 11.4922C155.682 11.4922 155.221 11.6406 154.846 11.9375C154.471 12.2344 154.187 12.6458 153.994 13.1719C153.801 13.6979 153.705 14.3073 153.705 15C153.705 15.6979 153.801 16.3151 153.994 16.8516C154.192 17.3828 154.476 17.7995 154.846 18.1016C155.221 18.3984 155.682 18.5469 156.229 18.5469ZM170.16 21.2344C168.947 21.2344 167.897 20.9766 167.012 20.4609C166.132 19.9401 165.452 19.2161 164.973 18.2891C164.493 17.3568 164.254 16.276 164.254 15.0469C164.254 13.8073 164.493 12.724 164.973 11.7969C165.452 10.8646 166.132 10.1406 167.012 9.625C167.897 9.10417 168.947 8.84375 170.16 8.84375C171.374 8.84375 172.421 9.10417 173.301 9.625C174.186 10.1406 174.868 10.8646 175.348 11.7969C175.827 12.724 176.066 13.8073 176.066 15.0469C176.066 16.276 175.827 17.3568 175.348 18.2891C174.868 19.2161 174.186 19.9401 173.301 20.4609C172.421 20.9766 171.374 21.2344 170.16 21.2344ZM170.176 18.6562C170.728 18.6562 171.189 18.5 171.559 18.1875C171.928 17.8698 172.207 17.4375 172.395 16.8906C172.587 16.3437 172.684 15.7214 172.684 15.0234C172.684 14.3255 172.587 13.7031 172.395 13.1562C172.207 12.6094 171.928 12.1771 171.559 11.8594C171.189 11.5417 170.728 11.3828 170.176 11.3828C169.618 11.3828 169.15 11.5417 168.77 11.8594C168.395 12.1771 168.111 12.6094 167.918 13.1562C167.73 13.7031 167.637 14.3255 167.637 15.0234C167.637 15.7214 167.73 16.3437 167.918 16.8906C168.111 17.4375 168.395 17.8698 168.77 18.1875C169.15 18.5 169.618 18.6562 170.176 18.6562Z" fill="#0176FF"/>
</svg>
